<svg xmlns="http://www.w3.org/2000/svg" width="166.937255859375" height="215.979248046875" viewBox="4.997762203216553 -21.999523162841797 166.937255859375 215.979248046875"><title>Neo4j Graph Visualization</title><desc>Created using Neo4j (http://www.neo4j.com/)</desc><g class="layer relationships"><g class="relationship" transform="translate(70.22461309805547 164.9797192551083) rotate(252.71206188672153)"><path class="outline" fill="#A5ABB6" stroke="none" d="M 17.324116139070416,-18.03122292025696 L 18.031222920256962,-17.324116139070412 A 47.020758266363494 47.020758266363494 0 0 1 21.950351012478663,-20.82767202378043 L 21.326593123073497,-21.60928963834961 A 48.020758266363494 48.020758266363494 0 0 0 17.324116139070416,-18.03122292025696 Z M 77.7819737239819,-24.12082296945197 L 77.23008627501571,-23.286904362108558 A 47.020758266363494 47.020758266363494 0 0 1 81.44484234716533,-20.145200987694388 L 79.52027178435023,-17.843890893694542 L 87.13532766030082,-16.03808802345913 L 84.0109364309188,-23.21361444636085 L 82.0863658681037,-20.912304352361005 A 48.020758266363494 48.020758266363494 0 0 0 77.7819737239819,-24.12082296945197"/><text text-anchor="middle" pointer-events="none" font-size="8px" fill="#000000" x="49.167950468884634" y="-28.54922295339334" transform="rotate(180 49.167950468884634 -31.54922295339334)" font-family="sans-serif">BEST_TICKET</text></g><g class="relationship" transform="translate(38.631193505027795 63.46966532488973) rotate(348.83497732373985)"><path class="outline" fill="#A5ABB6" stroke="none" d="M 5.987513214418485,24.277555179777966 L 6.953439040707552,24.018736134675446 A 45.89180338303611 45.89180338303611 0 0 0 21.477691205976402,47.03790534298095 L 20.82825440593113,47.79832091537999 A 46.89180338303611 46.89180338303611 0 0 1 5.987513214418485,24.277555179777966 Z M 77.05545097670412,51.31433949050739 L 76.50580408803987,50.478942400626366 A 45.89180338303611 45.89180338303611 0 0 0 93.78458240005206,29.448491334487546 L 91.00610811117278,28.317084853139306 L 96.88760990467782,23.153952407327274 L 97.48921478522442,30.95703330961853 L 94.71074049634514,29.82562682827029 A 46.89180338303611 46.89180338303611 0 0 1 77.05545097670412,51.31433949050739"/><text text-anchor="middle" pointer-events="none" font-size="8px" fill="#000000" x="48.38618406874194" y="61.44242912483051" font-family="sans-serif">BEST_TICKET</text></g><g class="relationship" transform="translate(70.22461309805547 164.9797192551083) rotate(252.71206188672153)"><path class="outline" fill="#A5ABB6" stroke="none" d="M 24.018736134675446,-6.953439040707552 L 24.277555179777966,-5.987513214418485 A 104.32912599790384 104.32912599790384 0 0 1 25.43690638763904,-6.291034501113472 L 25.189199783063287,-7.259869594434079 A 105.32912599790384 105.32912599790384 0 0 0 24.018736134675446,-6.953439040707552 Z M 74.08800704542482,-8.043350241197615 L 73.87146592365625,-7.067076743358399 A 104.32912599790384 104.32912599790384 0 0 1 75.03994586379491,-6.800853107782079 L 74.35672267881387,-3.8796879156876036 L 81.9698685095122,-5.693526541508718 L 75.9509101104363,-10.695740030574715 L 75.26768692545525,-7.7745748384802384 A 105.32912599790384 105.32912599790384 0 0 0 74.08800704542482,-8.043350241197615"/><text text-anchor="middle" pointer-events="none" font-size="8px" fill="#000000" x="49.60051188680327" y="-7.028988690795131" transform="rotate(180 49.60051188680327 -10.028988690795131)" font-family="sans-serif">BUSINES…</text></g><g class="relationship" transform="translate(38.631193505027795 63.46966532488973) rotate(348.83497732373985)"><path class="outline" fill="#A5ABB6" stroke="none" d="M 12.698856172145504,21.540405101092272 L 13.549972844582506,21.015428520757713 A 44.33181198382962 44.33181198382962 0 0 0 22.018858294516964,31.044012429623802 L 21.358775668985682,31.795205432434482 A 45.33181198382962 45.33181198382962 0 0 1 12.698856172145504,21.540405101092272 Z M 77.35092116360843,34.82810308261341 L 76.7758414816062,34.010005680497855 A 44.33181198382962 44.33181198382962 0 0 0 86.27842475747912,24.954873043899994 L 83.91013169333262,23.11335520192409 L 90.97001523278064,19.735775534554143 L 89.43614884300779,27.41023016653453 L 87.06785577886129,25.568712324558625 A 45.33181198382962 45.33181198382962 0 0 1 77.35092116360843,34.82810308261341"/><text text-anchor="middle" pointer-events="none" font-size="8px" fill="#000000" x="48.85669014462717" y="45.50845337306447" font-family="sans-serif">BEST_TICKET</text></g><g class="relationship" transform="translate(38.631193505027795 63.46966532488973) rotate(348.83497732373985)"><path class="outline" fill="#A5ABB6" stroke="none" d="M 18.343228848217933,16.993409175968942 L 19.008024713831873,16.246384104727944 A 48.54646982457677 48.54646982457677 0 0 0 21.85513469547469,18.59245164552371 L 21.24898593627098,19.387802940057014 A 49.54646982457677 49.54646982457677 0 0 1 18.343228848217933,16.993409175968942 Z M 77.92735892236351,21.752377127522585 L 77.38956396192853,20.909301460378323 A 48.54646982457677 48.54646982457677 0 0 0 80.42219226767781,18.808531669869655 L 78.62140169137336,16.409124805602353 L 86.32094004701894,15.006588135870473 L 82.82324636941709,22.00774082222606 L 81.02245579311264,19.60833395795876 A 49.54646982457677 49.54646982457677 0 0 1 77.92735892236351,21.752377127522585"/><text text-anchor="middle" pointer-events="none" font-size="8px" fill="#000000" x="49.23711790840941" y="31.984797079118316" font-family="sans-serif">BEST_TICKET</text></g><g class="relationship" transform="translate(38.631193505027795 63.46966532488973) rotate(432.71206188672153)"><path class="outline" fill="#A5ABB6" stroke="none" d="M 24.018736134675446,-6.953439040707552 L 24.277555179777966,-5.987513214418485 A 104.32912599790384 104.32912599790384 0 0 1 26.725210581359054,-6.611702452521243 L 26.48985243826419,-7.583611164530211 A 105.32912599790384 105.32912599790384 0 0 0 24.018736134675446,-6.953439040707552 Z M 72.7776503969202,-8.325256941027959 L 72.5735498668312,-7.3463070068549285 A 104.32912599790384 104.32912599790384 0 0 1 75.03994586379491,-6.800853107782079 L 74.35672267881387,-3.8796879156876036 L 81.9698685095122,-5.693526541508718 L 75.9509101104363,-10.695740030574715 L 75.26768692545525,-7.7745748384802384 A 105.32912599790384 105.32912599790384 0 0 0 72.7776503969202,-8.325256941027959"/><text text-anchor="middle" pointer-events="none" font-size="8px" fill="#000000" x="49.60051188680327" y="-7.028988690795131" font-family="sans-serif">BEST_TI…</text></g><g class="relationship" transform="translate(38.631193505027795 63.46966532488973) rotate(348.83497732373985)"><path class="outline" fill="#A5ABB6" stroke="none" d="M 22.446385545045896,11.018610437035811 L 22.869003806786598,10.112302649999162 A 67.22973403834686 67.22973403834686 0 0 0 24.37015146892485,10.790038240519735 L 23.96986183429551,11.706426918106004 A 68.22973403834686 68.22973403834686 0 0 1 22.446385545045896,11.018610437035811 Z M 75.27412784889505,13.053618766259639 L 74.92248334897587,12.11748515096928 A 67.22973403834686 67.22973403834686 0 0 0 76.45713088134107,11.519466099762136 L 75.33371663176429,8.737750725420643 L 83.13503579640069,9.361785413139884 L 77.95501654744346,15.22841993221746 L 76.83160229786668,12.446704557875966 A 68.22973403834686 68.22973403834686 0 0 1 75.27412784889505,13.053618766259639"/><text text-anchor="middle" pointer-events="none" font-size="8px" fill="#000000" x="49.50362397883168" y="19.88786650225584" font-family="sans-serif">BEST_TIC…</text></g><g class="relationship" transform="translate(38.631193505027795 63.46966532488973) rotate(348.83497732373985)"><path class="outline" fill="#A5ABB6" stroke="none" d="M 24.663575034869986,4.118017301971641 L 24.808506894177235,3.1285756633906963 A 182.6583221640998 182.6583221640998 0 0 0 26.558109127758588,3.376216248559416 L 26.422755820432176,4.367013645707715 A 183.6583221640998 183.6583221640998 0 0 1 24.663575034869986,4.118017301971641 Z M 72.87608538269754,4.783183750871615 L 72.75850525899348,3.7901203518331954 A 182.6583221640998 182.6583221640998 0 0 0 74.51226347486654,3.5738659751540713 L 74.13071918951007,0.5982275632646461 L 81.51901048350129,3.1795357113038865 L 75.02098918867517,7.541383857673305 L 74.6394449033187,4.56574544578388 A 183.6583221640998 183.6583221640998 0 0 1 72.87608538269754,4.783183750871615"/><text text-anchor="middle" pointer-events="none" font-size="8px" fill="#000000" x="49.64068837766739" y="8.549798393167606" font-family="sans-serif">BEST_TI…</text></g><g class="relationship" transform="translate(38.631193505027795 63.46966532488973) rotate(432.71206188672153)"><path class="outline" fill="#A5ABB6" stroke="none" d="M 17.324116139070416,-18.03122292025696 L 18.031222920256962,-17.324116139070412 A 47.020758266363494 47.020758266363494 0 0 1 19.607201327596112,-18.82870101790226 L 18.933611198744508,-19.567806110777205 A 48.020758266363494 48.020758266363494 0 0 0 17.324116139070416,-18.03122292025696 Z M 80.34678285482941,-22.29989693969788 L 79.74148498038387,-21.503897892467485 A 47.020758266363494 47.020758266363494 0 0 1 81.44484234716533,-20.145200987694388 L 79.52027178435023,-17.843890893694542 L 87.13532766030082,-16.03808802345913 L 84.0109364309188,-23.21361444636085 L 82.0863658681037,-20.912304352361005 A 48.020758266363494 48.020758266363494 0 0 0 80.34678285482941,-22.29989693969788"/><text text-anchor="middle" pointer-events="none" font-size="8px" fill="#000000" x="49.167950468884634" y="-28.54922295339334" font-family="sans-serif">BUSINESS_TI…</text></g><g class="relationship" transform="translate(38.631193505027795 63.46966532488973) rotate(348.83497732373985)"><path class="outline" fill="#A5ABB6" stroke="none" d="M 24.663575034869986,-4.118017301971641 L 24.808506894177235,-3.1285756633906963 A 182.6583221640998 182.6583221640998 0 0 1 25.240676366822484,-3.1913515554177536 L 25.09811050687144,-4.181136873341018 A 183.6583221640998 183.6583221640998 0 0 0 24.663575034869986,-4.118017301971641 Z M 74.20384830740335,-4.621069602752954 L 74.07903865601408,-3.6288888979818523 A 182.6583221640998 182.6583221640998 0 0 1 74.51226347486654,-3.5738659751540713 L 74.13071918951007,-0.5982275632646461 L 81.51901048350129,-3.1795357113038865 L 75.02098918867517,-7.541383857673305 L 74.6394449033187,-4.56574544578388 A 183.6583221640998 183.6583221640998 0 0 0 74.20384830740335,-4.621069602752954"/><text text-anchor="middle" pointer-events="none" font-size="8px" fill="#000000" x="49.64068837766733" y="-2.549798393167606" font-family="sans-serif">BUSINES…</text></g><g class="relationship" transform="translate(38.631193505027795 63.46966532488973) rotate(348.83497732373985)"><path class="outline" fill="#A5ABB6" stroke="none" d="M 22.446385545045896,-11.018610437035811 L 22.869003806786598,-10.112302649999162 A 67.22973403834686 67.22973403834686 0 0 1 23.361165484400292,-10.339390544234256 L 22.945867817998153,-11.249076120838026 A 68.22973403834686 68.22973403834686 0 0 0 22.446385545045896,-11.018610437035811 Z M 76.3207131693,-12.650639034403007 L 75.95372953117143,-11.720411637824135 A 67.22973403834686 67.22973403834686 0 0 1 76.45713088134107,-11.519466099762136 L 75.33371663176429,-8.737750725420643 L 83.13503579640069,-9.361785413139884 L 77.95501654744346,-15.22841993221746 L 76.83160229786668,-12.446704557875966 A 68.22973403834686 68.22973403834686 0 0 0 76.3207131693,-12.650639034403007"/><text text-anchor="middle" pointer-events="none" font-size="8px" fill="#000000" x="49.50362397883166" y="-13.88786650225584" font-family="sans-serif">BUSINESS…</text></g><g class="relationship" transform="translate(38.631193505027795 63.46966532488973) rotate(348.83497732373985)"><path class="outline" fill="#A5ABB6" stroke="none" d="M 18.343228848217933,-16.993409175968942 L 19.008024713831873,-16.246384104727944 A 48.54646982457677 48.54646982457677 0 0 1 19.46513370049613,-16.648071133978277 L 18.809753740679582,-17.403370484084483 A 49.54646982457677 49.54646982457677 0 0 0 18.343228848217933,-16.993409175968942 Z M 80.5234049900528,-19.978012257840533 L 79.93321384323197,-19.170748725767943 A 48.54646982457677 48.54646982457677 0 0 1 80.42219226767781,-18.808531669869655 L 78.62140169137336,-16.409124805602353 L 86.32094004701894,-15.006588135870473 L 82.82324636941709,-22.00774082222606 L 81.02245579311264,-19.60833395795876 A 49.54646982457677 49.54646982457677 0 0 0 80.5234049900528,-19.978012257840533"/><text text-anchor="middle" pointer-events="none" font-size="8px" fill="#000000" x="49.2371179084094" y="-25.984797079118316" font-family="sans-serif">BUSINESS_TI…</text></g><g class="relationship" transform="translate(38.631193505027795 63.46966532488973) rotate(348.83497732373985)"><path class="outline" fill="#A5ABB6" stroke="none" d="M 12.698856172145504,-21.540405101092272 L 13.549972844582506,-21.015428520757713 A 44.33181198382962 44.33181198382962 0 0 1 15.504410848283321,-23.92065767964747 L 14.697380756480868,-24.51116799363473 A 45.33181198382962 45.33181198382962 0 0 0 12.698856172145504,-21.540405101092272 Z M 84.76013419409662,-28.306221003104007 L 84.0216105043161,-27.631993475015026 A 44.33181198382962 44.33181198382962 0 0 1 86.27842475747912,-24.954873043899994 L 83.91013169333262,-23.11335520192409 L 90.97001523278064,-19.735775534554143 L 89.43614884300779,-27.41023016653453 L 87.06785577886129,-25.568712324558625 A 45.33181198382962 45.33181198382962 0 0 0 84.76013419409662,-28.306221003104007"/><text text-anchor="middle" pointer-events="none" font-size="8px" fill="#000000" x="48.856690144627166" y="-39.50845337306447" font-family="sans-serif">BUSINESS_TICKET</text></g><g class="relationship" transform="translate(38.631193505027795 63.46966532488973) rotate(348.83497732373985)"><path class="outline" fill="#A5ABB6" stroke="none" d="M 5.987513214418485,-24.277555179777966 L 6.953439040707552,-24.018736134675446 A 45.89180338303611 45.89180338303611 0 0 1 14.83442284834151,-40.02774365202205 L 14.040226682398433,-40.63540511204838 A 46.89180338303611 46.89180338303611 0 0 0 5.987513214418485,-24.277555179777966 Z M 84.6829376695797,-45.05285963898091 L 83.97062937438837,-44.350992919010785 A 45.89180338303611 45.89180338303611 0 0 1 93.78458240005206,-29.448491334487546 L 91.00610811117278,-28.317084853139306 L 96.88760990467782,-23.153952407327274 L 97.48921478522442,-30.95703330961853 L 94.71074049634514,-29.82562682827029 A 46.89180338303611 46.89180338303611 0 0 0 84.6829376695797,-45.05285963898091"/><text text-anchor="middle" pointer-events="none" font-size="8px" fill="#000000" x="48.38618406874194" y="-55.44242912483051" font-family="sans-serif">BUSINESS_TICKET</text></g></g><g class="layer nodes"><g class="node" transform="translate(70.22461309805547,164.9797192551083)"><circle class="outline" cx="0" cy="0" r="25" fill="#FFC454" stroke="#d7a013" stroke-width="2px"/><text text-anchor="middle" pointer-events="none" font-family="sans-serif" dy="1.5625" font-size="25" fill="#2A2C34"/><text text-anchor="middle" pointer-events="none" x="0" y="5" font-size="10px" fill="#2A2C34" font-family="sans-serif"> MSN</text></g><g class="node" transform="translate(142.93500599667098,42.88311702727749)"><circle class="outline" cx="0" cy="0" r="25" fill="#FFC454" stroke="#d7a013" stroke-width="2px"/><text text-anchor="middle" pointer-events="none" font-family="sans-serif" dy="1.5625" font-size="25" fill="#2A2C34"/><text text-anchor="middle" pointer-events="none" x="0" y="5" font-size="10px" fill="#2A2C34" font-family="sans-serif"> GRR</text></g><g class="node" transform="translate(38.631193505027795,63.46966532488973)"><circle class="outline" cx="0" cy="0" r="25" fill="#FFC454" stroke="#d7a013" stroke-width="2px"/><text text-anchor="middle" pointer-events="none" font-family="sans-serif" dy="1.5625" font-size="25" fill="#2A2C34"/><text text-anchor="middle" pointer-events="none" x="0" y="5" font-size="10px" fill="#2A2C34" font-family="sans-serif"> ORD</text></g></g></svg>