<svg xmlns="http://www.w3.org/2000/svg" width="200.4521026611328" height="236.07151794433594" viewBox="-13.378180503845215 -9.66480827331543 200.4521026611328 236.07151794433594"><title>Neo4j Graph Visualization</title><desc>Created using Neo4j (http://www.neo4j.com/)</desc><g class="layer relationships"><g class="relationship" transform="translate(158.07392305800462 20.906550269289326) rotate(180.82415700297355)"><path class="outline" fill="#A5ABB6" stroke="none" d="M 21.40063509461097,12.933012701892217 L 21.90063509461097,12.06698729810778 A 61.79179977457319 61.79179977457319 0 0 0 41.39681659423117,19.284871909510642 L 41.21233065225741,20.267707062124778 A 62.79179977457319 62.79179977457319 0 0 1 21.40063509461097,12.933012701892217 Z M 60.61637817471151,20.856689754701613 L 60.49184211712297,19.86447467199006 A 61.79179977457319 61.79179977457319 0 0 0 80.38990564434935,13.842347207702712 L 79.05024387224769,11.158077039413117 L 86.87647966570869,11.163848100847115 L 82.1761213404849,17.421374098755507 L 80.83645956838323,14.73710393046591 A 62.79179977457319 62.79179977457319 0 0 1 60.61637817471151,20.856689754701613"/><text text-anchor="middle" pointer-events="none" font-size="8px" fill="#000000" x="50.906625047395906" y="23.816842541069356" transform="rotate(180 50.906625047395906 20.816842541069356)" font-family="sans-serif">trek</text></g><g class="relationship" transform="translate(48.83982693299519 19.33519099008034) rotate(468.22159144731074)"><path class="outline" fill="#A5ABB6" stroke="none" d="M 25 0.5 L 39.948058068888145 0.5 L 39.948058068888145 -0.5 L 25 -0.5 Z M 59.283995568888145 0.5 L 74.23205363777629 0.5 L 74.23205363777629 3.5 L 81.23205363777629 0 L 74.23205363777629 -3.5 L 74.23205363777629 -0.5 L 59.283995568888145 -0.5 Z"/><text text-anchor="middle" pointer-events="none" font-size="8px" fill="#000000" x="49.616026818888145" y="3" transform="rotate(180 49.616026818888145 0)" font-family="sans-serif">trek</text></g><g class="relationship" transform="translate(15.62181954332494 120.24016215185804) rotate(406.13018355288324)"><path class="outline" fill="#A5ABB6" stroke="none" d="M 25 0.5 L 40.35179803143359 0.5 L 40.35179803143359 -0.5 L 25 -0.5 Z M 59.68773553143359 0.5 L 75.03953356286718 0.5 L 75.03953356286718 3.5 L 82.03953356286718 0 L 75.03953356286718 -3.5 L 75.03953356286718 -0.5 L 59.68773553143359 -0.5 Z"/><text text-anchor="middle" pointer-events="none" font-size="8px" fill="#000000" x="50.01976678143359" y="3" font-family="sans-serif">trek</text></g><g class="relationship" transform="translate(158.07392305800462 20.906550269289326) rotate(180.82415700297355)"><path class="outline" fill="#A5ABB6" stroke="none" d="M 25 0.5 L 40.11683949239431 0.5 L 40.11683949239431 -0.5 L 25 -0.5 Z M 62.12855824239431 0.5 L 77.24539773478863 0.5 L 77.24539773478863 3.5 L 84.24539773478863 0 L 77.24539773478863 -3.5 L 77.24539773478863 -0.5 L 62.12855824239431 -0.5 Z"/><text text-anchor="middle" pointer-events="none" font-size="8px" fill="#000000" x="51.12269886739431" y="3" transform="rotate(180 51.12269886739431 0)" font-family="sans-serif">road</text></g><g class="relationship" transform="translate(158.07392305800462 20.906550269289326) rotate(180.82415700297355)"><path class="outline" fill="#A5ABB6" stroke="none" d="M 21.40063509461097,-12.933012701892217 L 21.90063509461097,-12.06698729810778 A 61.79179977457319 61.79179977457319 0 0 1 22.357400374511197,-12.328114376578966 L 21.864792379300937,-13.198365698356142 A 62.79179977457319 62.79179977457319 0 0 0 21.40063509461097,-12.933012701892217 Z M 80.35706278145426,-14.973816664270664 L 79.91814356113409,-14.075290138210626 A 61.79179977457319 61.79179977457319 0 0 1 80.38990564434935,-13.842347207702712 L 79.05024387224769,-11.158077039413117 L 86.87647966570869,-11.163848100847115 L 82.1761213404849,-17.421374098755507 L 80.83645956838323,-14.73710393046591 A 62.79179977457319 62.79179977457319 0 0 0 80.35706278145426,-14.973816664270664"/><text text-anchor="middle" pointer-events="none" font-size="8px" fill="#000000" x="50.90662504739592" y="-17.816842541069356" transform="rotate(180 50.90662504739592 -20.816842541069356)" font-family="sans-serif">PublicTransp…</text></g></g><g class="layer nodes"><g class="node" transform="translate(158.07392305800462,20.906550269289326)"><circle class="outline" cx="0" cy="0" r="25" fill="#F16667" stroke="#eb2728" stroke-width="2px"/><text text-anchor="middle" pointer-events="none" font-family="sans-serif" dy="1.5625" font-size="25" fill="#FFFFFF"/><text text-anchor="middle" pointer-events="none" x="0" y="5" font-size="10px" fill="#FFFFFF" font-family="sans-serif"> Darjeeling</text></g><g class="node" transform="translate(89.80258658986318,197.40670636464105)"><circle class="outline" cx="0" cy="0" r="25" fill="#8DCC93" stroke="#5db665" stroke-width="2px"/><text text-anchor="middle" pointer-events="none" font-family="sans-serif" dy="1.5625" font-size="25" fill="#2A2C34"/><text text-anchor="middle" pointer-events="none" x="0" y="5" font-size="10px" fill="#2A2C34" font-family="sans-serif"> Sandak…</text></g><g class="node" transform="translate(48.83982693299519,19.33519099008034)"><circle class="outline" cx="0" cy="0" r="25" fill="#F16667" stroke="#eb2728" stroke-width="2px"/><text text-anchor="middle" pointer-events="none" font-family="sans-serif" dy="1.5625" font-size="25" fill="#FFFFFF"/><text text-anchor="middle" pointer-events="none" x="0" y="5" font-size="10px" fill="#FFFFFF" font-family="sans-serif"> Rimbik</text></g><g class="node" transform="translate(15.62181954332494,120.24016215185804)"><circle class="outline" cx="0" cy="0" r="25" fill="#D9C8AE" stroke="#c0a378" stroke-width="2px"/><text text-anchor="middle" pointer-events="none" font-family="sans-serif" dy="1.5625" font-size="25" fill="#2A2C34"/><text text-anchor="middle" pointer-events="none" x="0" y="5" font-size="10px" fill="#2A2C34" font-family="sans-serif"> BhikeBh…</text></g></g></svg>