<svg xmlns="http://www.w3.org/2000/svg" width="383.79498291015625" height="350.04034423828125" viewBox="-76.90988159179688 -81.51016235351562 383.79498291015625 350.04034423828125"><title>Neo4j Graph Visualization</title><desc>Created using Neo4j (http://www.neo4j.com/)</desc><g class="layer relationships"><g class="relationship" transform="translate(27.92664104334144 -10.719923746118564) rotate(380.44142749775324)"><path class="outline" fill="#A5ABB6" stroke="none" d="M 24.018736134675446,-6.953439040707552 L 24.277555179777966,-5.987513214418485 A 148.17909972545667 148.17909972545667 0 0 1 49.69018333537249,-10.470600673848793 L 49.60286370012385,-11.466781019619589 A 149.17909972545667 149.17909972545667 0 0 0 24.018736134675446,-6.953439040707552 Z M 71.66645908466933,-11.76259938262399 L 71.60587867611056,-10.764436062270619 A 148.17909972545667 148.17909972545667 0 0 1 97.12956470013903,-6.964278869439051 L 96.431076792819,-4.046726017590833 L 104.05360267233822,-5.82073256100033 L 98.06088190989908,-10.854349338570008 L 97.36239400257905,-7.936796486721791 A 149.17909972545667 149.17909972545667 0 0 0 71.66645908466933,-11.76259938262399"/><text text-anchor="middle" pointer-events="none" font-size="8px" fill="#000000" x="60.63588762142742" y="-8.523231980237739" font-family="sans-serif">road</text></g><g class="relationship" transform="translate(148.20990580527928 34.11204706473333) rotate(375.9703348743543)"><path class="outline" fill="#F16667" stroke="none" d="M 21.40063509461097,-12.933012701892217 L 21.90063509461097,-12.06698729810778 A 88.12158580110948 88.12158580110948 0 0 1 41.01793634995997,-20.26912280754489 L 40.734878669841684,-21.228225695522013 A 89.12158580110948 89.12158580110948 0 0 0 21.40063509461097,-12.933012701892217 Z M 86.91426235801507,-22.374984438688685 L 86.67915843594606,-21.403014199520953 A 88.12158580110948 88.12158580110948 0 0 1 106.18000763615825,-14.159871603001033 L 104.81081145311067,-11.490545505963059 L 112.63663455975478,-11.409968192063042 L 108.00560254688834,-17.71897306571833 L 106.63640636384076,-15.049646968680356 A 89.12158580110948 89.12158580110948 0 0 0 86.91426235801507,-22.374984438688685"/><text text-anchor="middle" pointer-events="none" font-size="8px" fill="#000000" x="63.76139305012181" y="-21.34572898066058" font-family="sans-serif">twowheeler</text></g><g class="relationship" transform="translate(277.8850944037191 71.22315952417895) rotate(217.81847265114317)"><path class="outline" fill="#F16667" stroke="none" d="M 21.40063509461097,12.933012701892217 L 21.90063509461097,12.06698729810778 A 44.27814313324761 44.27814313324761 0 0 0 23.016282392345083,12.689818969665069 L 22.54147873570521,13.569910719223834 A 45.27814313324761 45.27814313324761 0 0 1 21.40063509461097,12.933012701892217 Z M 62.6541903660185,14.995816278136687 L 62.243076251864046,14.084232389982127 A 44.27814313324761 44.27814313324761 0 0 0 63.40013189500068,13.542189566284625 L 62.088394961351234,10.844163210427451 L 69.914149547609,10.931141113745433 L 65.14911447319996,17.139558040760853 L 63.8373775395505,14.441531684903682 A 45.27814313324761 45.27814313324761 0 0 1 62.6541903660185,14.995816278136687"/><text text-anchor="middle" pointer-events="none" font-size="8px" fill="#000000" x="42.448961532668655" y="21.470869086421445" transform="rotate(180 42.448961532668655 18.470869086421445)" font-family="sans-serif">twowhe…</text></g><g class="relationship" transform="translate(204.89484881137662 14.56842028670506) rotate(466.7704285760883)"><path class="outline" fill="#A5ABB6" stroke="none" d="M 25 0.5 L 59.91274695824701 0.5 L 59.91274695824701 -0.5 L 25 -0.5 Z M 79.24868445824701 0.5 L 114.16143141649403 0.5 L 114.16143141649403 3.5 L 121.16143141649403 0 L 114.16143141649403 -3.5 L 114.16143141649403 -0.5 L 79.24868445824701 -0.5 Z"/><text text-anchor="middle" pointer-events="none" font-size="8px" fill="#000000" x="69.58071570824701" y="3" transform="rotate(180 69.58071570824701 0)" font-family="sans-serif">trek</text></g><g class="relationship" transform="translate(277.8850944037191 71.22315952417895) rotate(217.81847265114317)"><path class="outline" fill="#A5ABB6" stroke="none" d="M 25 0.5 L 31.692991881542717 0.5 L 31.692991881542717 -0.5 L 25 -0.5 Z M 53.70471063154272 0.5 L 60.397702513085434 0.5 L 60.397702513085434 3.5 L 67.39770251308543 0 L 60.397702513085434 -3.5 L 60.397702513085434 -0.5 L 53.70471063154272 -0.5 Z"/><text text-anchor="middle" pointer-events="none" font-size="8px" fill="#000000" x="42.69885125654272" y="3" transform="rotate(180 42.69885125654272 0)" font-family="sans-serif">road</text></g><g class="relationship" transform="translate(277.8850944037191 71.22315952417895) rotate(217.81847265114317)"><path class="outline" fill="#A5ABB6" stroke="none" d="M 21.40063509461097,-12.933012701892217 L 21.90063509461097,-12.06698729810778 A 44.27814313324761 44.27814313324761 0 0 1 33.023320768694475,-16.60680636318498 L 32.7745211327344,-17.575361338984564 A 45.27814313324761 45.27814313324761 0 0 0 21.40063509461097,-12.933012701892217 Z M 52.16256882798307,-18.26455745317174 L 51.983169638779486,-17.28078109092619 A 44.27814313324761 44.27814313324761 0 0 1 63.40013189500068,-13.542189566284625 L 62.088394961351234,-10.844163210427451 L 69.914149547609,-10.931141113745433 L 65.14911447319996,-17.139558040760853 L 63.8373775395505,-14.441531684903682 A 45.27814313324761 45.27814313324761 0 0 0 52.16256882798307,-18.26455745317174"/><text text-anchor="middle" pointer-events="none" font-size="8px" fill="#000000" x="42.448961532668655" y="-15.470869086421445" transform="rotate(180 42.448961532668655 -18.470869086421445)" font-family="sans-serif">trek</text></g><g class="relationship" transform="translate(148.20990580527928 34.11204706473333) rotate(375.9703348743543)"><path class="outline" fill="#A5ABB6" stroke="none" d="M 25 0.5 L 52.934649975868936 0.5 L 52.934649975868936 -0.5 L 25 -0.5 Z M 74.94636872586894 0.5 L 102.88101870173787 0.5 L 102.88101870173787 3.5 L 109.88101870173787 0 L 102.88101870173787 -3.5 L 102.88101870173787 -0.5 L 74.94636872586894 -0.5 Z"/><text text-anchor="middle" pointer-events="none" font-size="8px" fill="#000000" x="63.940509350868936" y="3" font-family="sans-serif">road</text></g><g class="relationship" transform="translate(148.20990580527928 34.11204706473333) rotate(375.9703348743543)"><path class="outline" fill="#A5ABB6" stroke="none" d="M 21.40063509461097,12.933012701892217 L 21.90063509461097,12.06698729810778 A 88.12158580110948 88.12158580110948 0 0 0 54.195402065666556,23.084006680371928 L 54.06188170487715,24.07505275056981 A 89.12158580110948 89.12158580110948 0 0 1 21.40063509461097,12.933012701892217 Z M 73.46238406717272,24.55681958955614 L 73.37821864299875,23.560367793745826 A 88.12158580110948 88.12158580110948 0 0 0 106.18000763615825,14.159871603001033 L 104.81081145311067,11.490545505963059 L 112.63663455975478,11.409968192063042 L 108.00560254688834,17.71897306571833 L 106.63640636384076,15.049646968680356 A 89.12158580110948 89.12158580110948 0 0 1 73.46238406717272,24.55681958955614"/><text text-anchor="middle" pointer-events="none" font-size="8px" fill="#000000" x="63.76139305012182" y="27.34572898066058" font-family="sans-serif">trek</text></g><g class="relationship" transform="translate(27.92664104334144 -10.719923746118564) rotate(380.44142749775324)"><path class="outline" fill="#A5ABB6" stroke="none" d="M 24.018736134675446,6.953439040707552 L 24.277555179777966,5.987513214418485 A 148.17909972545667 148.17909972545667 0 0 0 51.018987534935455,10.581054037061591 L 50.94063545450409,11.577979787301842 A 149.17909972545667 149.17909972545667 0 0 1 24.018736134675446,6.953439040707552 Z M 70.32618693850264,11.837892190787585 L 70.27459084576715,10.83922415624636 A 148.17909972545667 148.17909972545667 0 0 0 97.12956470013903,6.964278869439051 L 96.431076792819,4.046726017590833 L 104.05360267233822,5.82073256100033 L 98.06088190989908,10.854349338570008 L 97.36239400257905,7.936796486721791 A 149.17909972545667 149.17909972545667 0 0 1 70.32618693850264,11.837892190787585"/><text text-anchor="middle" pointer-events="none" font-size="8px" fill="#000000" x="60.635887621427464" y="14.523231980237739" font-family="sans-serif">trek</text></g><g class="relationship" transform="translate(27.92664104334144 -10.719923746118564) rotate(329.6071877440685)"><path class="outline" fill="#A5ABB6" stroke="none" d="M 21.40063509461097,12.933012701892217 L 21.90063509461097,12.06698729810778 A 33.96987061385868 33.96987061385868 0 0 0 28.202028503358697,14.89436409163796 L 27.88752798554327,15.843621393055138 A 34.96987061385868 34.96987061385868 0 0 1 21.40063509461097,12.933012701892217 Z M 47.23269124477672,16.60727149933726 L 46.99399660002363,15.636176824979401 A 33.96987061385868 33.96987061385868 0 0 0 53.49865599546341,13.314318824644445 L 52.20812247297527,10.606086333270348 L 60.03295406241766,10.754446020734477 L 55.21936735878092,16.92529547980991 L 53.92883383629278,14.217062988435814 A 34.96987061385868 34.96987061385868 0 0 1 47.23269124477672,16.60727149933726"/><text text-anchor="middle" pointer-events="none" font-size="8px" fill="#000000" x="37.52593157232367" y="20.09126157947587" font-family="sans-serif">trek</text></g><g class="relationship" transform="translate(99.17685718955379 -52.51016314619399) rotate(494.2228820836808)"><path class="outline" fill="#F16667" stroke="none" d="M 24.018736134675446,-6.953439040707552 L 24.277555179777966,-5.987513214418485 A 192.68929577511878 192.68929577511878 0 0 1 48.83673051782981,-10.883428882997435 L 48.70536627108159,-11.874763052022331 A 193.68929577511878 193.68929577511878 0 0 0 24.018736134675446,-6.953439040707552 Z M 95.17519784548563,-12.408619574416917 L 95.06664263055973,-11.41452915332215 A 192.68929577511878 192.68929577511878 0 0 1 119.73181225448207,-7.084114514728137 L 119.02213197840838,-4.1692639343806706 L 126.65141032130511,-5.9140023006140945 L 120.67805262258032,-10.970581955191427 L 119.96837234650664,-8.05573137484396 A 193.68929577511878 193.68929577511878 0 0 0 95.17519784548563,-12.408619574416917"/><text text-anchor="middle" pointer-events="none" font-size="8px" fill="#000000" x="71.92995639278725" y="-10.040494486696275" transform="rotate(180 71.92995639278725 -13.040494486696275)" font-family="sans-serif">twowheeler</text></g><g class="relationship" transform="translate(-6.097728423978678 55.65960258501329) rotate(420.53700630572655)"><path class="outline" fill="#F16667" stroke="none" d="M 24.018736134675446,-6.953439040707552 L 24.277555179777966,-5.987513214418485 A 115.89102283282266 115.89102283282266 0 0 1 29.564590251782505,-7.271947606367462 L 29.351391954023214,-8.248956555063714 A 116.89102283282266 116.89102283282266 0 0 0 24.018736134675446,-6.953439040707552 Z M 75.70120167387745,-8.95541526265957 L 75.51787842022432,-7.972362576039956 A 115.89102283282266 115.89102283282266 0 0 1 80.8416028671298,-6.849656214942595 L 80.15382110874114,-3.92956096772414 L 87.76978873703763,-5.731514653238804 L 81.758645211648,-10.7431165445672 L 81.07086345325935,-7.823021297348745 A 116.89102283282266 116.89102283282266 0 0 0 75.70120167387745,-8.95541526265957"/><text text-anchor="middle" pointer-events="none" font-size="8px" fill="#000000" x="52.49854589236211" y="-7.422886710387402" font-family="sans-serif">twowheeler</text></g><g class="relationship" transform="translate(49.04185050770101 153.26551824744047) rotate(360.62891585212975)"><path class="outline" fill="#F16667" stroke="none" d="M 24.018736134675446,6.953439040707552 L 24.277555179777966,5.987513214418485 A 119.04459139659033 119.04459139659033 0 0 0 30.344554058474102,7.443884695497459 L 30.13669910008497,8.422044353361684 A 120.04459139659033 120.04459139659033 0 0 1 24.018736134675446,6.953439040707552 Z M 76.49748631668297,9.119384357946373 L 76.3191448902351,8.135415691975481 A 119.04459139659033 119.04459139659033 0 0 0 82.42720145780382,6.862176416591174 L 81.73825023824618,3.9423568644492883 L 89.3549389493945,5.741260162980329 L 83.34580308388068,10.755269152780354 L 82.65685186432304,7.835449600638469 A 120.04459139659033 120.04459139659033 0 0 1 76.49748631668297,9.119384357946373"/><text text-anchor="middle" pointer-events="none" font-size="8px" fill="#000000" x="53.29062516683923" y="13.53033814553423" font-family="sans-serif">twowheeler</text></g><g class="relationship" transform="translate(49.04185050770101 153.26551824744047) rotate(360.62891585212975)"><path class="outline" fill="#A5ABB6" stroke="none" d="M 24.018736134675446,-6.953439040707552 L 24.277555179777966,-5.987513214418485 A 119.04459139659033 119.04459139659033 0 0 1 43.68804405587795,-9.496706343292956 L 43.59227726412338,-10.492110141556282 A 120.04459139659033 120.04459139659033 0 0 0 24.018736134675446,-6.953439040707552 Z M 62.9857353300921,-10.783818607882608 L 62.919950003251856,-9.785984808709358 A 119.04459139659033 119.04459139659033 0 0 1 82.42720145780382,-6.862176416591174 L 81.73825023824618,-3.9423568644492883 L 89.3549389493945,-5.741260162980329 L 83.34580308388068,-10.755269152780354 L 82.65685186432304,-7.835449600638469 A 120.04459139659033 120.04459139659033 0 0 0 62.9857353300921,-10.783818607882608"/><text text-anchor="middle" pointer-events="none" font-size="8px" fill="#000000" x="53.29062516683924" y="-7.53033814553423" font-family="sans-serif">trek</text></g><g class="relationship" transform="translate(-6.097728423978678 55.65960258501329) rotate(420.53700630572655)"><path class="outline" fill="#A5ABB6" stroke="none" d="M 24.018736134675446,6.953439040707552 L 24.277555179777966,5.987513214418485 A 115.89102283282266 115.89102283282266 0 0 0 42.89800193692737,9.37687377426235 L 42.79985492924409,10.372045701560765 A 116.89102283282266 116.89102283282266 0 0 1 24.018736134675446,6.953439040707552 Z M 62.19428106134673,10.667653413925962 L 62.126509201506366,9.66995256947719 A 115.89102283282266 115.89102283282266 0 0 0 80.8416028671298,6.849656214942595 L 80.15382110874114,3.92956096772414 L 87.76978873703763,5.731514653238804 L 81.758645211648,10.7431165445672 L 81.07086345325935,7.823021297348745 A 116.89102283282266 116.89102283282266 0 0 1 62.19428106134673,10.667653413925962"/><text text-anchor="middle" pointer-events="none" font-size="8px" fill="#000000" x="52.49854589236213" y="13.422886710387402" font-family="sans-serif">trek</text></g><g class="relationship" transform="translate(99.17685718955379 -52.51016314619399) rotate(494.2228820836808)"><path class="outline" fill="#A5ABB6" stroke="none" d="M 24.018736134675446,6.953439040707552 L 24.277555179777966,5.987513214418485 A 192.68929577511878 192.68929577511878 0 0 0 62.30018505721276,12.188580909811577 L 62.23869212576115,13.18668842876005 A 193.68929577511878 193.68929577511878 0 0 1 24.018736134675446,6.953439040707552 Z M 81.61530431985184,13.40929157689422 L 81.57675758666144,12.410034778388251 A 192.68929577511878 192.68929577511878 0 0 0 119.73181225448207,7.084114514728137 L 119.02213197840838,4.1692639343806706 L 126.65141032130511,5.9140023006140945 L 120.67805262258032,10.970581955191427 L 119.96837234650664,8.05573137484396 A 193.68929577511878 193.68929577511878 0 0 1 81.61530431985184,13.40929157689422"/><text text-anchor="middle" pointer-events="none" font-size="8px" fill="#000000" x="71.92995639278725" y="16.040494486696275" transform="rotate(180 71.92995639278725 13.040494486696275)" font-family="sans-serif">trek</text></g><g class="relationship" transform="translate(99.17685718955379 -52.51016314619399) rotate(392.3953270214406)"><path class="outline" fill="#A5ABB6" stroke="none" d="M 25 0.5 L 49.43360892164539 0.5 L 49.43360892164539 -0.5 L 25 -0.5 Z M 68.76954642164539 0.5 L 93.20315534329077 0.5 L 93.20315534329077 3.5 L 100.20315534329077 0 L 93.20315534329077 -3.5 L 93.20315534329077 -0.5 L 68.76954642164539 -0.5 Z"/><text text-anchor="middle" pointer-events="none" font-size="8px" fill="#000000" x="59.10157767164539" y="3" font-family="sans-serif">trek</text></g><g class="relationship" transform="translate(27.92664104334144 -10.719923746118564) rotate(329.6071877440685)"><path class="outline" fill="#A5ABB6" stroke="none" d="M 25 0.5 L 26.79491970360091 0.5 L 26.79491970360091 -0.5 L 25 -0.5 Z M 48.80663845360091 0.5 L 50.60155815720182 0.5 L 50.60155815720182 3.5 L 57.60155815720182 0 L 50.60155815720182 -3.5 L 50.60155815720182 -0.5 L 48.80663845360091 -0.5 Z"/><text text-anchor="middle" pointer-events="none" font-size="8px" fill="#000000" x="37.80077907860091" y="3" font-family="sans-serif">road</text></g><g class="relationship" transform="translate(27.92664104334144 -10.719923746118564) rotate(329.6071877440685)"><path class="outline" fill="#A5ABB6" stroke="none" d="M 21.40063509461097,-12.933012701892217 L 21.90063509461097,-12.06698729810778 A 33.96987061385868 33.96987061385868 0 0 1 22.582609137611144,-12.450323079728207 L 22.102684988083237,-13.32763306525209 A 34.96987061385868 34.96987061385868 0 0 0 21.40063509461097,-12.933012701892217 Z M 53.19786171586499,-14.555114823603134 L 52.788586786816424,-13.64270371426026 A 33.96987061385868 33.96987061385868 0 0 1 53.49865599546341,-13.314318824644445 L 52.20812247297527,-10.606086333270348 L 60.03295406241766,-10.754446020734477 L 55.21936735878092,-16.92529547980991 L 53.92883383629278,-14.217062988435814 A 34.96987061385868 34.96987061385868 0 0 0 53.19786171586499,-14.555114823603134"/><text text-anchor="middle" pointer-events="none" font-size="8px" fill="#000000" x="37.52593157232368" y="-14.09126157947587" font-family="sans-serif">Publi…</text></g><g class="relationship" transform="translate(99.17685718955379 -52.51016314619399) rotate(420.487695495378)"><path class="outline" fill="#A5ABB6" stroke="none" d="M 25 0.5 L 36.60061360467979 0.5 L 36.60061360467979 -0.5 L 25 -0.5 Z M 55.93655110467979 0.5 L 67.53716470935959 0.5 L 67.53716470935959 3.5 L 74.53716470935959 0 L 67.53716470935959 -3.5 L 67.53716470935959 -0.5 L 55.93655110467979 -0.5 Z"/><text text-anchor="middle" pointer-events="none" font-size="8px" fill="#000000" x="46.26858235467979" y="3" font-family="sans-serif">trek</text></g><g class="relationship" transform="translate(-6.097728423978678 55.65960258501329) rotate(469.18162132876597)"><path class="outline" fill="#F16667" stroke="none" d="M 24.018736134675446,-6.953439040707552 L 24.277555179777966,-5.987513214418485 A 145.984032633257 145.984032633257 0 0 1 37.05839405143866,-8.804770718838768 L 36.887124573512224,-9.789994939983785 A 146.984032633257 146.984032633257 0 0 0 24.018736134675446,-6.953439040707552 Z M 83.31111096712368,-10.417577353948559 L 83.16653670636698,-9.428083400896469 A 145.984032633257 145.984032633257 0 0 1 96.01886128640238,-6.9573476807144745 L 95.3210207575225,-4.039639916689321 L 102.94315282394105,-5.815337740665626 L 96.94931532490888,-10.847624699414679 L 96.251474796029,-7.929916935389525 A 146.984032633257 146.984032633257 0 0 0 83.31111096712368,-10.417577353948559"/><text text-anchor="middle" pointer-events="none" font-size="8px" fill="#000000" x="60.08094040716932" y="-8.448415379249155" transform="rotate(180 60.08094040716932 -11.448415379249155)" font-family="sans-serif">twowheeler</text></g><g class="relationship" transform="translate(-47.9098859093887 175.85188735198392) rotate(346.88598921418816)"><path class="outline" fill="#F16667" stroke="none" d="M 21.40063509461097,12.933012701892217 L 21.90063509461097,12.06698729810778 A 51.738503188699816 51.738503188699816 0 0 0 23.976103203475038,13.202795405638803 L 23.516217779292866,14.090773669238075 A 52.738503188699816 52.738503188699816 0 0 1 21.40063509461097,12.933012701892217 Z M 68.86973529820732,15.593824543926331 L 68.46965097018324,14.677346213320789 A 51.738503188699816 51.738503188699816 0 0 0 70.61576559711081,13.681444643820804 L 69.29107252521268,10.989755905265563 L 77.11715483238939,11.03910893248438 L 72.3820230263083,17.270362961894456 L 71.05732995441018,14.578674223339217 A 52.738503188699816 52.738503188699816 0 0 1 68.86973529820732,15.593824543926331"/><text text-anchor="middle" pointer-events="none" font-size="8px" fill="#000000" x="46.03961195905602" y="22.46996891408535" font-family="sans-serif">twowheeler</text></g><g class="relationship" transform="translate(-47.9098859093887 175.85188735198392) rotate(346.88598921418816)"><path class="outline" fill="#A5ABB6" stroke="none" d="M 25 0.5 L 35.26808778517485 0.5 L 35.26808778517485 -0.5 L 25 -0.5 Z M 57.27980653517485 0.5 L 67.5478943203497 0.5 L 67.5478943203497 3.5 L 74.5478943203497 0 L 67.5478943203497 -3.5 L 67.5478943203497 -0.5 L 57.27980653517485 -0.5 Z"/><text text-anchor="middle" pointer-events="none" font-size="8px" fill="#000000" x="46.27394716017485" y="3" font-family="sans-serif">road</text></g><g class="relationship" transform="translate(-47.9098859093887 175.85188735198392) rotate(346.88598921418816)"><path class="outline" fill="#A5ABB6" stroke="none" d="M 21.40063509461097,-12.933012701892217 L 21.90063509461097,-12.06698729810778 A 51.738503188699816 51.738503188699816 0 0 1 36.56980083163579,-17.771818810122085 L 36.353325959595594,-18.748107000041017 A 52.738503188699816 52.738503188699816 0 0 0 21.40063509461097,-12.933012701892217 Z M 55.75243782827836,-19.39100866803708 L 55.60107685561754,-18.402530111893768 A 51.738503188699816 51.738503188699816 0 0 1 70.61576559711081,-13.681444643820804 L 69.29107252521268,-10.989755905265563 L 77.11715483238939,-11.03910893248438 L 72.3820230263083,-17.270362961894456 L 71.05732995441018,-14.578674223339217 A 52.738503188699816 52.738503188699816 0 0 0 55.75243782827836,-19.39100866803708"/><text text-anchor="middle" pointer-events="none" font-size="8px" fill="#000000" x="46.03961195905602" y="-16.46996891408535" font-family="sans-serif">trek</text></g><g class="relationship" transform="translate(-6.097728423978678 55.65960258501329) rotate(469.18162132876597)"><path class="outline" fill="#A5ABB6" stroke="none" d="M 24.018736134675446,6.953439040707552 L 24.277555179777966,5.987513214418485 A 145.984032633257 145.984032633257 0 0 0 50.46489981135909,10.500506950905844 L 50.38546575897951,11.497347074156579 A 146.984032633257 146.984032633257 0 0 1 24.018736134675446,6.953439040707552 Z M 69.7715492887144,11.759417741586134 L 69.7190908954832,10.760794631008565 A 145.984032633257 145.984032633257 0 0 0 96.01886128640238,6.9573476807144745 L 95.3210207575225,4.039639916689321 L 102.94315282394105,5.815337740665626 L 96.94931532490888,10.847624699414679 L 96.251474796029,7.929916935389525 A 146.984032633257 146.984032633257 0 0 1 69.7715492887144,11.759417741586134"/><text text-anchor="middle" pointer-events="none" font-size="8px" fill="#000000" x="60.08094040716936" y="14.448415379249155" transform="rotate(180 60.08094040716936 11.448415379249155)" font-family="sans-serif">trek</text></g><g class="relationship" transform="translate(-47.9098859093887 175.85188735198392) rotate(389.77272518293216)"><path class="outline" fill="#A5ABB6" stroke="none" d="M 25 0.5 L 50.95136696867938 0.5 L 50.95136696867938 -0.5 L 25 -0.5 Z M 70.28730446867938 0.5 L 96.23867143735876 0.5 L 96.23867143735876 3.5 L 103.23867143735876 0 L 96.23867143735876 -3.5 L 96.23867143735876 -0.5 L 70.28730446867938 -0.5 Z"/><text text-anchor="middle" pointer-events="none" font-size="8px" fill="#000000" x="60.61933571867938" y="3" font-family="sans-serif">trek</text></g><g class="relationship" transform="translate(63.4015286831513 239.53018690078255) rotate(319.43691834955973)"><path class="outline" fill="#A5ABB6" stroke="none" d="M 25 0.5 L 52.2009182952212 0.5 L 52.2009182952212 -0.5 L 25 -0.5 Z M 71.5368557952212 0.5 L 98.7377740904424 0.5 L 98.7377740904424 3.5 L 105.7377740904424 0 L 98.7377740904424 -3.5 L 98.7377740904424 -0.5 L 71.5368557952212 -0.5 Z"/><text text-anchor="middle" pointer-events="none" font-size="8px" fill="#000000" x="61.8688870452212" y="3" font-family="sans-serif">trek</text></g></g><g class="layer nodes"><g class="node" transform="translate(27.92664104334144,-10.719923746118564)"><circle class="outline" cx="0" cy="0" r="25" fill="#F16667" stroke="#eb2728" stroke-width="2px"/><text text-anchor="middle" pointer-events="none" font-family="sans-serif" dy="1.5625" font-size="25" fill="#FFFFFF"/><text text-anchor="middle" pointer-events="none" x="0" y="5" font-size="10px" fill="#FFFFFF" font-family="sans-serif"> Darjeeling</text></g><g class="node" transform="translate(162.72177024408407,154.51339332209298)"><circle class="outline" cx="0" cy="0" r="25" fill="#8DCC93" stroke="#5db665" stroke-width="2px"/><text text-anchor="middle" pointer-events="none" font-family="sans-serif" dy="1.5625" font-size="25" fill="#2A2C34"/><text text-anchor="middle" pointer-events="none" x="0" y="5" font-size="10px" fill="#2A2C34" font-family="sans-serif"> Sandak…</text></g><g class="node" transform="translate(148.20990580527928,34.11204706473333)"><circle class="outline" cx="0" cy="0" r="25" fill="#D9C8AE" stroke="#c0a378" stroke-width="2px"/><text text-anchor="middle" pointer-events="none" font-family="sans-serif" dy="1.5625" font-size="25" fill="#2A2C34"/><text text-anchor="middle" pointer-events="none" x="0" y="5" font-size="10px" fill="#2A2C34" font-family="sans-serif"> Tumbling</text></g><g class="node" transform="translate(277.8850944037191,71.22315952417895)"><circle class="outline" cx="0" cy="0" r="25" fill="#D9C8AE" stroke="#c0a378" stroke-width="2px"/><text text-anchor="middle" pointer-events="none" font-family="sans-serif" dy="1.5625" font-size="25" fill="#2A2C34"/><text text-anchor="middle" pointer-events="none" x="0" y="5" font-size="10px" fill="#2A2C34" font-family="sans-serif"> Gairibus</text></g><g class="node" transform="translate(204.89484881137662,14.56842028670506)"><circle class="outline" cx="0" cy="0" r="25" fill="#D9C8AE" stroke="#c0a378" stroke-width="2px"/><text text-anchor="middle" pointer-events="none" font-family="sans-serif" dy="1.5625" font-size="25" fill="#2A2C34"/><text text-anchor="middle" pointer-events="none" x="0" y="5" font-size="10px" fill="#2A2C34" font-family="sans-serif"> BhikeBh…</text></g><g class="node" transform="translate(99.17685718955379,-52.51016314619399)"><circle class="outline" cx="0" cy="0" r="25" fill="#F16667" stroke="#eb2728" stroke-width="2px"/><text text-anchor="middle" pointer-events="none" font-family="sans-serif" dy="1.5625" font-size="25" fill="#FFFFFF"/><text text-anchor="middle" pointer-events="none" x="0" y="5" font-size="10px" fill="#FFFFFF" font-family="sans-serif"> Rimbik</text></g><g class="node" transform="translate(-6.097728423978678,55.65960258501329)"><circle class="outline" cx="0" cy="0" r="25" fill="#D9C8AE" stroke="#c0a378" stroke-width="2px"/><text text-anchor="middle" pointer-events="none" font-family="sans-serif" dy="1.5625" font-size="25" fill="#2A2C34"/><text text-anchor="middle" pointer-events="none" x="0" y="5" font-size="10px" fill="#2A2C34" font-family="sans-serif"> Sirikhola</text></g><g class="node" transform="translate(49.04185050770101,153.26551824744047)"><circle class="outline" cx="0" cy="0" r="25" fill="#D9C8AE" stroke="#c0a378" stroke-width="2px"/><text text-anchor="middle" pointer-events="none" font-family="sans-serif" dy="1.5625" font-size="25" fill="#2A2C34"/><text text-anchor="middle" pointer-events="none" x="0" y="5" font-size="10px" fill="#2A2C34" font-family="sans-serif"> Gurdum</text></g><g class="node" transform="translate(-47.9098859093887,175.85188735198392)"><circle class="outline" cx="0" cy="0" r="25" fill="#D9C8AE" stroke="#c0a378" stroke-width="2px"/><text text-anchor="middle" pointer-events="none" font-family="sans-serif" dy="1.5625" font-size="25" fill="#2A2C34"/><text text-anchor="middle" pointer-events="none" x="0" y="5" font-size="10px" fill="#2A2C34" font-family="sans-serif"> Rammam</text></g><g class="node" transform="translate(63.4015286831513,239.53018690078255)"><circle class="outline" cx="0" cy="0" r="25" fill="#8DCC93" stroke="#5db665" stroke-width="2px"/><text text-anchor="middle" pointer-events="none" font-family="sans-serif" dy="1.5625" font-size="25" fill="#2A2C34"/><text text-anchor="middle" pointer-events="none" x="0" y="5" font-size="10px" fill="#2A2C34" font-family="sans-serif"> Sabargr…</text></g></g></svg>