<svg xmlns="http://www.w3.org/2000/svg" width="288.009765625" height="284.49468994140625" viewBox="-37.13352966308594 -41.819129943847656 288.009765625 284.49468994140625"><title>Neo4j Graph Visualization</title><desc>Created using Neo4j (http://www.neo4j.com/)</desc><g class="layer relationships"><g class="relationship" transform="translate(150.9787915407023 213.67556868558663) rotate(248.69113010316005)"><path class="outline" fill="#A5ABB6" stroke="none" d="M 25 0.5 L 32.0666000530599 0.5 L 32.0666000530599 -0.5 L 25 -0.5 Z M 77.6291000530599 0.5 L 84.6957001061198 0.5 L 84.6957001061198 3.5 L 91.6957001061198 0 L 84.6957001061198 -3.5 L 84.6957001061198 -0.5 L 77.6291000530599 -0.5 Z"/><text text-anchor="middle" pointer-events="none" font-size="8px" fill="#000000" x="54.8478500530599" y="3" transform="rotate(180 54.8478500530599 0)" font-family="sans-serif">ACTED_IN</text></g><g class="relationship" transform="translate(221.87625470446977 134.76534865730466) rotate(194.73916196309517)"><path class="outline" fill="#A5ABB6" stroke="none" d="M 25 0.5 L 37.19297526397458 0.5 L 37.19297526397458 -0.5 L 25 -0.5 Z M 72.96641276397457 0.5 L 85.15938802794916 0.5 L 85.15938802794916 3.5 L 92.15938802794916 0 L 85.15938802794916 -3.5 L 85.15938802794916 -0.5 L 72.96641276397457 -0.5 Z"/><text text-anchor="middle" pointer-events="none" font-size="8px" fill="#000000" x="55.07969401397458" y="3" transform="rotate(180 55.07969401397458 0)" font-family="sans-serif">WROTE</text></g><g class="relationship" transform="translate(199.8485160032202 31.456457927745518) rotate(501.15687003103733)"><path class="outline" fill="#A5ABB6" stroke="none" d="M 25 0.5 L 37.2089863217905 0.5 L 37.2089863217905 -0.5 L 25 -0.5 Z M 72.98242382179049 0.5 L 85.191410143581 0.5 L 85.191410143581 3.5 L 92.191410143581 0 L 85.191410143581 -3.5 L 85.191410143581 -0.5 L 72.98242382179049 -0.5 Z"/><text text-anchor="middle" pointer-events="none" font-size="8px" fill="#000000" x="55.0957050717905" y="3" transform="rotate(180 55.0957050717905 0)" font-family="sans-serif">WROTE</text></g><g class="relationship" transform="translate(104.79352136541733 -12.81912866379704) rotate(448.1624359582768)"><path class="outline" fill="#A5ABB6" stroke="none" d="M 25 0.5 L 32.63749928670934 0.5 L 32.63749928670934 -0.5 L 25 -0.5 Z M 78.19999928670934 0.5 L 85.83749857341869 0.5 L 85.83749857341869 3.5 L 92.83749857341869 0 L 85.83749857341869 -3.5 L 85.83749857341869 -0.5 L 78.19999928670934 -0.5 Z"/><text text-anchor="middle" pointer-events="none" font-size="8px" fill="#000000" x="55.41874928670934" y="3" font-family="sans-serif">ACTED_IN</text></g><g class="relationship" transform="translate(19.789769617150437 28.6400281373881) rotate(400.68252079884985)"><path class="outline" fill="#A5ABB6" stroke="none" d="M 25 0.5 L 32.256560309283884 0.5 L 32.256560309283884 -0.5 L 25 -0.5 Z M 77.81906030928388 0.5 L 85.07562061856777 0.5 L 85.07562061856777 3.5 L 92.07562061856777 0 L 85.07562061856777 -3.5 L 85.07562061856777 -0.5 L 77.81906030928388 -0.5 Z"/><text text-anchor="middle" pointer-events="none" font-size="8px" fill="#000000" x="55.037810309283884" y="3" font-family="sans-serif">ACTED_IN</text></g><g class="relationship" transform="translate(-8.133531197968354 118.95634135802409) rotate(353.1601822718743)"><path class="outline" fill="#A5ABB6" stroke="none" d="M 25 0.5 L 32.48984238423095 0.5 L 32.48984238423095 -0.5 L 25 -0.5 Z M 78.05234238423094 0.5 L 85.5421847684619 0.5 L 85.5421847684619 3.5 L 92.5421847684619 0 L 85.5421847684619 -3.5 L 85.5421847684619 -0.5 L 78.05234238423094 -0.5 Z"/><text text-anchor="middle" pointer-events="none" font-size="8px" fill="#000000" x="55.27109238423095" y="3" font-family="sans-serif">ACTED_IN</text></g><g class="relationship" transform="translate(46.69432670209403 204.98842643294324) rotate(301.7404439747088)"><path class="outline" fill="#A5ABB6" stroke="none" d="M 25 0.5 L 31.865806964492187 0.5 L 31.865806964492187 -0.5 L 25 -0.5 Z M 78.75643196449218 0.5 L 85.62223892898437 0.5 L 85.62223892898437 3.5 L 92.62223892898437 0 L 85.62223892898437 -3.5 L 85.62223892898437 -0.5 L 78.75643196449218 -0.5 Z"/><text text-anchor="middle" pointer-events="none" font-size="8px" fill="#000000" x="55.31111946449219" y="3" font-family="sans-serif">DIRECTED</text></g></g><g class="layer nodes"><g class="node" transform="translate(150.9787915407023,213.67556868558663)"><circle class="outline" cx="0" cy="0" r="25" fill="#F79767" stroke="#f36924" stroke-width="2px"/><text text-anchor="middle" pointer-events="none" font-family="sans-serif" dy="1.5625" font-size="25" fill="#FFFFFF"/><text text-anchor="middle" pointer-events="none" font-family="sans-serif" dy="1.5625" font-size="25" fill="#FFFFFF"/><text text-anchor="middle" pointer-events="none" x="0" y="0" font-size="10px" fill="#FFFFFF" font-family="sans-serif"> Chris</text><text text-anchor="middle" pointer-events="none" x="0" y="10" font-size="10px" fill="#FFFFFF" font-family="sans-serif"> Evans</text></g><g class="node" transform="translate(108.57210389522773,104.95777222982413)"><circle class="outline" cx="0" cy="0" r="25" fill="#57C7E3" stroke="#23b3d7" stroke-width="2px"/><text text-anchor="middle" pointer-events="none" font-family="sans-serif" dy="1.5625" font-size="25" fill="#2A2C34"/><text text-anchor="middle" pointer-events="none" font-family="sans-serif" dy="1.5625" font-size="25" fill="#2A2C34"/><text text-anchor="middle" pointer-events="none" font-family="sans-serif" dy="1.5625" font-size="25" fill="#2A2C34"/><text text-anchor="middle" pointer-events="none" x="0" y="-5" font-size="10px" fill="#2A2C34" font-family="sans-serif"> Capitan</text><text text-anchor="middle" pointer-events="none" x="0" y="5" font-size="10px" fill="#2A2C34" font-family="sans-serif"> America:</text><text text-anchor="middle" pointer-events="none" x="0" y="15" font-size="10px" fill="#2A2C34" font-family="sans-serif"> The Fi…</text></g><g class="node" transform="translate(221.87625470446977,134.76534865730466)"><circle class="outline" cx="0" cy="0" r="25" fill="#F79767" stroke="#f36924" stroke-width="2px"/><text text-anchor="middle" pointer-events="none" font-family="sans-serif" dy="1.5625" font-size="25" fill="#FFFFFF"/><text text-anchor="middle" pointer-events="none" font-family="sans-serif" dy="1.5625" font-size="25" fill="#FFFFFF"/><text text-anchor="middle" pointer-events="none" x="0" y="0" font-size="10px" fill="#FFFFFF" font-family="sans-serif"> Stephen</text><text text-anchor="middle" pointer-events="none" x="0" y="10" font-size="10px" fill="#FFFFFF" font-family="sans-serif"> McFeely</text></g><g class="node" transform="translate(199.8485160032202,31.456457927745518)"><circle class="outline" cx="0" cy="0" r="25" fill="#F79767" stroke="#f36924" stroke-width="2px"/><text text-anchor="middle" pointer-events="none" font-family="sans-serif" dy="1.5625" font-size="25" fill="#FFFFFF"/><text text-anchor="middle" pointer-events="none" x="0" y="5" font-size="10px" fill="#FFFFFF" font-family="sans-serif"> Christop…</text></g><g class="node" transform="translate(104.79352136541733,-12.81912866379704)"><circle class="outline" cx="0" cy="0" r="25" fill="#F79767" stroke="#f36924" stroke-width="2px"/><text text-anchor="middle" pointer-events="none" font-family="sans-serif" dy="1.5625" font-size="25" fill="#FFFFFF"/><text text-anchor="middle" pointer-events="none" font-family="sans-serif" dy="1.5625" font-size="25" fill="#FFFFFF"/><text text-anchor="middle" pointer-events="none" x="0" y="0" font-size="10px" fill="#FFFFFF" font-family="sans-serif"> Tommy</text><text text-anchor="middle" pointer-events="none" x="0" y="10" font-size="10px" fill="#FFFFFF" font-family="sans-serif"> Lee Jon…</text></g><g class="node" transform="translate(19.789769617150437,28.6400281373881)"><circle class="outline" cx="0" cy="0" r="25" fill="#F79767" stroke="#f36924" stroke-width="2px"/><text text-anchor="middle" pointer-events="none" font-family="sans-serif" dy="1.5625" font-size="25" fill="#FFFFFF"/><text text-anchor="middle" pointer-events="none" font-family="sans-serif" dy="1.5625" font-size="25" fill="#FFFFFF"/><text text-anchor="middle" pointer-events="none" x="0" y="0" font-size="10px" fill="#FFFFFF" font-family="sans-serif"> Hayley</text><text text-anchor="middle" pointer-events="none" x="0" y="10" font-size="10px" fill="#FFFFFF" font-family="sans-serif"> Atwell</text></g><g class="node" transform="translate(-8.133531197968354,118.95634135802409)"><circle class="outline" cx="0" cy="0" r="25" fill="#F79767" stroke="#f36924" stroke-width="2px"/><text text-anchor="middle" pointer-events="none" font-family="sans-serif" dy="1.5625" font-size="25" fill="#FFFFFF"/><text text-anchor="middle" pointer-events="none" x="0" y="5" font-size="10px" fill="#FFFFFF" font-family="sans-serif"> Sebastian</text></g><g class="node" transform="translate(46.69432670209403,204.98842643294324)"><circle class="outline" cx="0" cy="0" r="25" fill="#F79767" stroke="#f36924" stroke-width="2px"/><text text-anchor="middle" pointer-events="none" font-family="sans-serif" dy="1.5625" font-size="25" fill="#FFFFFF"/><text text-anchor="middle" pointer-events="none" font-family="sans-serif" dy="1.5625" font-size="25" fill="#FFFFFF"/><text text-anchor="middle" pointer-events="none" x="0" y="0" font-size="10px" fill="#FFFFFF" font-family="sans-serif"> Joe</text><text text-anchor="middle" pointer-events="none" x="0" y="10" font-size="10px" fill="#FFFFFF" font-family="sans-serif"> Johnston</text></g></g></svg>